{
    "asset" : {
        "generator" : "Khronos glTF Blender I/O v1.0.5",
        "version" : "2.0"
    },
    "scene" : 0,
    "scenes" : [
        {
            "name" : "Scene",
            "nodes" : [
                0,
                1,
                2,
                3,
                4
            ]
        }
    ],
    "nodes" : [
        {
            "mesh" : 0,
            "name" : "safe_model"
        },
        {
            "mesh" : 1,
            "name" : "door_model",
            "translation" : [
                -0.8999999761581421,
                2,
                1.1100000143051147
            ]
        },
        {
            "mesh" : 2,
            "name" : "blockchain_model",
            "translation" : [
                0,
                2,
                0
            ]
        },
        {
            "mesh" : 3,
            "name" : "chain_model",
            "translation" : [
                0,
                2,
                0
            ]
        },
        {
            "mesh" : 4,
            "name" : "doorhandle_model",
            "translation" : [
                0,
                2,
                1.3100000619888306
            ]
        }
    ],
    "materials" : [
        {
            "doubleSided" : true,
            "name" : "Safe",
            "pbrMetallicRoughness" : {
                "baseColorTexture" : {
                    "index" : 0,
                    "texCoord" : 0
                },
                "metallicFactor" : 0,
                "roughnessFactor" : 0.5
            }
        },
        {
            "doubleSided" : true,
            "name" : "Door",
            "pbrMetallicRoughness" : {
                "baseColorTexture" : {
                    "index" : 1,
                    "texCoord" : 0
                },
                "metallicFactor" : 0,
                "roughnessFactor" : 0.5
            }
        },
        {
            "doubleSided" : true,
            "name" : "Block",
            "pbrMetallicRoughness" : {
                "baseColorTexture" : {
                    "index" : 2,
                    "texCoord" : 0
                },
                "metallicFactor" : 0,
                "roughnessFactor" : 0.5
            }
        },
        {
            "doubleSided" : true,
            "name" : "Chain",
            "pbrMetallicRoughness" : {
                "baseColorFactor" : [
                    0.8000000715255737,
                    0.15473303198814392,
                    0.03915558382868767,
                    1
                ],
                "metallicFactor" : 0,
                "roughnessFactor" : 0.5
            }
        },
        {
            "doubleSided" : true,
            "name" : "Handle",
            "pbrMetallicRoughness" : {
                "baseColorTexture" : {
                    "index" : 3,
                    "texCoord" : 0
                },
                "metallicFactor" : 0,
                "roughnessFactor" : 0.5
            }
        }
    ],
    "meshes" : [
        {
            "name" : "Plane",
            "primitives" : [
                {
                    "attributes" : {
                        "POSITION" : 0,
                        "NORMAL" : 1,
                        "TEXCOORD_0" : 2
                    },
                    "indices" : 3,
                    "material" : 0
                }
            ]
        },
        {
            "name" : "Cube.001",
            "primitives" : [
                {
                    "attributes" : {
                        "POSITION" : 4,
                        "NORMAL" : 5,
                        "TEXCOORD_0" : 6
                    },
                    "indices" : 7,
                    "material" : 1
                }
            ]
        },
        {
            "name" : "Cube.002",
            "primitives" : [
                {
                    "attributes" : {
                        "POSITION" : 8,
                        "NORMAL" : 9,
                        "TEXCOORD_0" : 10
                    },
                    "indices" : 11,
                    "material" : 2
                }
            ]
        },
        {
            "name" : "Torus",
            "primitives" : [
                {
                    "attributes" : {
                        "POSITION" : 12,
                        "NORMAL" : 13,
                        "TEXCOORD_0" : 14
                    },
                    "indices" : 15,
                    "material" : 3
                }
            ]
        },
        {
            "name" : "Cylinder",
            "primitives" : [
                {
                    "attributes" : {
                        "POSITION" : 16,
                        "NORMAL" : 17,
                        "TEXCOORD_0" : 18
                    },
                    "indices" : 19,
                    "material" : 4
                }
            ]
        }
    ],
    "textures" : [
        {
            "source" : 0
        },
        {
            "source" : 1
        },
        {
            "source" : 2
        },
        {
            "source" : 3
        }
    ],
    "images" : [
        {
            "bufferView" : 4,
            "mimeType" : "image/png",
            "name" : "SafeColours1"
        },
        {
            "bufferView" : 9,
            "mimeType" : "image/png",
            "name" : "Door"
        },
        {
            "bufferView" : 14,
            "mimeType" : "image/png",
            "name" : "Box"
        },
        {
            "bufferView" : 23,
            "mimeType" : "image/png",
            "name" : "blue"
        }
    ],
    "accessors" : [
        {
            "bufferView" : 0,
            "componentType" : 5126,
            "count" : 544,
            "max" : [
                1,
                4,
                1.0750000476837158
            ],
            "min" : [
                -1,
                -0.20000000298023224,
                -1
            ],
            "type" : "VEC3"
        },
        {
            "bufferView" : 1,
            "componentType" : 5126,
            "count" : 544,
            "type" : "VEC3"
        },
        {
            "bufferView" : 2,
            "componentType" : 5126,
            "count" : 544,
            "type" : "VEC2"
        },
        {
            "bufferView" : 3,
            "componentType" : 5123,
            "count" : 1164,
            "type" : "SCALAR"
        },
        {
            "bufferView" : 5,
            "componentType" : 5126,
            "count" : 419,
            "max" : [
                1.809999942779541,
                1.6500000953674316,
                0.039999932050704956
            ],
            "min" : [
                -0.033333346247673035,
                -1.6500000953674316,
                -0.17000004649162292
            ],
            "type" : "VEC3"
        },
        {
            "bufferView" : 6,
            "componentType" : 5126,
            "count" : 419,
            "type" : "VEC3"
        },
        {
            "bufferView" : 7,
            "componentType" : 5126,
            "count" : 419,
            "type" : "VEC2"
        },
        {
            "bufferView" : 8,
            "componentType" : 5123,
            "count" : 648,
            "type" : "SCALAR"
        },
        {
            "bufferView" : 10,
            "componentType" : 5126,
            "count" : 24,
            "max" : [
                0.30000001192092896,
                0.30000001192092896,
                0.30000001192092896
            ],
            "min" : [
                -0.30000001192092896,
                -0.30000001192092896,
                -0.30000001192092896
            ],
            "type" : "VEC3"
        },
        {
            "bufferView" : 11,
            "componentType" : 5126,
            "count" : 24,
            "type" : "VEC3"
        },
        {
            "bufferView" : 12,
            "componentType" : 5126,
            "count" : 24,
            "type" : "VEC2"
        },
        {
            "bufferView" : 13,
            "componentType" : 5123,
            "count" : 36,
            "type" : "SCALAR"
        },
        {
            "bufferView" : 15,
            "componentType" : 5126,
            "count" : 505,
            "max" : [
                0.25000008940696716,
                1.8765000104904175,
                0.2500000596046448
            ],
            "min" : [
                -0.2499999850988388,
                -1.8765002489089966,
                -0.2499999850988388
            ],
            "type" : "VEC3"
        },
        {
            "bufferView" : 16,
            "componentType" : 5126,
            "count" : 505,
            "type" : "VEC3"
        },
        {
            "bufferView" : 17,
            "componentType" : 5126,
            "count" : 505,
            "type" : "VEC2"
        },
        {
            "bufferView" : 18,
            "componentType" : 5123,
            "count" : 2160,
            "type" : "SCALAR"
        },
        {
            "bufferView" : 19,
            "componentType" : 5126,
            "count" : 323,
            "max" : [
                0.7475061416625977,
                0.7475055456161499,
                0.18999993801116943
            ],
            "min" : [
                -0.7475057244300842,
                -0.7475064396858215,
                -0.2200000286102295
            ],
            "type" : "VEC3"
        },
        {
            "bufferView" : 20,
            "componentType" : 5126,
            "count" : 323,
            "type" : "VEC3"
        },
        {
            "bufferView" : 21,
            "componentType" : 5126,
            "count" : 323,
            "type" : "VEC2"
        },
        {
            "bufferView" : 22,
            "componentType" : 5123,
            "count" : 1212,
            "type" : "SCALAR"
        }
    ],
    "bufferViews" : [
        {
            "buffer" : 0,
            "byteLength" : 6528,
            "byteOffset" : 0
        },
        {
            "buffer" : 0,
            "byteLength" : 6528,
            "byteOffset" : 6528
        },
        {
            "buffer" : 0,
            "byteLength" : 4352,
            "byteOffset" : 13056
        },
        {
            "buffer" : 0,
            "byteLength" : 2328,
            "byteOffset" : 17408
        },
        {
            "buffer" : 0,
            "byteLength" : 174962,
            "byteOffset" : 19736
        },
        {
            "buffer" : 0,
            "byteLength" : 5028,
            "byteOffset" : 194700
        },
        {
            "buffer" : 0,
            "byteLength" : 5028,
            "byteOffset" : 199728
        },
        {
            "buffer" : 0,
            "byteLength" : 3352,
            "byteOffset" : 204756
        },
        {
            "buffer" : 0,
            "byteLength" : 1296,
            "byteOffset" : 208108
        },
        {
            "buffer" : 0,
            "byteLength" : 23904,
            "byteOffset" : 209404
        },
        {
            "buffer" : 0,
            "byteLength" : 288,
            "byteOffset" : 233308
        },
        {
            "buffer" : 0,
            "byteLength" : 288,
            "byteOffset" : 233596
        },
        {
            "buffer" : 0,
            "byteLength" : 192,
            "byteOffset" : 233884
        },
        {
            "buffer" : 0,
            "byteLength" : 72,
            "byteOffset" : 234076
        },
        {
            "buffer" : 0,
            "byteLength" : 197429,
            "byteOffset" : 234148
        },
        {
            "buffer" : 0,
            "byteLength" : 6060,
            "byteOffset" : 431580
        },
        {
            "buffer" : 0,
            "byteLength" : 6060,
            "byteOffset" : 437640
        },
        {
            "buffer" : 0,
            "byteLength" : 4040,
            "byteOffset" : 443700
        },
        {
            "buffer" : 0,
            "byteLength" : 4320,
            "byteOffset" : 447740
        },
        {
            "buffer" : 0,
            "byteLength" : 3876,
            "byteOffset" : 452060
        },
        {
            "buffer" : 0,
            "byteLength" : 3876,
            "byteOffset" : 455936
        },
        {
            "buffer" : 0,
            "byteLength" : 2584,
            "byteOffset" : 459812
        },
        {
            "buffer" : 0,
            "byteLength" : 2424,
            "byteOffset" : 462396
        },
        {
            "buffer" : 0,
            "byteLength" : 6101,
            "byteOffset" : 464820
        }
    ],
    "buffers" : [
        {
            "byteLength" : 470924,
            "uri" : "data:application/octet-stream;base64,"
        }
    ]
}
