{
    "asset" : {
        "generator" : "Khronos glTF Blender I/O v1.0.5",
        "version" : "2.0"
    },
    "scene" : 0,
    "scenes" : [
        {
            "name" : "Scene",
            "nodes" : [
                0,
                1,
                2,
                3,
                4,
                5,
                6,
                7,
                8
            ]
        }
    ],
    "nodes" : [
        {
            "mesh" : 0,
            "name" : "gear3_r"
        },
        {
            "mesh" : 1,
            "name" : "gear4_l",
            "translation" : [
                1.4657261371612549,
                0,
                -1.8321574926376343
            ]
        },
        {
            "mesh" : 2,
            "name" : "gear2_l",
            "translation" : [
                -2.1287930011749268,
                0,
                1.0294981002807617
            ]
        },
        {
            "mesh" : 3,
            "name" : "gear5_r",
            "translation" : [
                2.9314522743225098,
                0,
                0.026173679158091545
            ]
        },
        {
            "mesh" : 4,
            "name" : "box_input",
            "translation" : [
                6.700459957122803,
                -1.0207699537277222,
                0.034898001700639725
            ]
        },
        {
            "mesh" : 5,
            "name" : "gear1_r",
            "translation" : [
                -3.6047000885009766,
                0,
                -0.8108569979667664
            ]
        },
        {
            "mesh" : 6,
            "name" : "box_output",
            "scale" : [
                1.399999976158142,
                1,
                1.399999976158142
            ],
            "translation" : [
                -3.6047000885009766,
                -1.3000000715255737,
                -0.8108569979667664
            ]
        },
        {
            "mesh" : 7,
            "name" : "gear6_r",
            "translation" : [
                2.9314522743225098,
                -1.0207699537277222,
                0.026173679158091545
            ]
        },
        {
            "mesh" : 8,
            "name" : "gear7_l",
            "translation" : [
                6.700459957122803,
                -1.0207699537277222,
                0.034898001700639725
            ]
        }
    ],
    "materials" : [
        {
            "doubleSided" : true,
            "name" : "Gear_Blue",
            "pbrMetallicRoughness" : {
                "baseColorTexture" : {
                    "index" : 0,
                    "texCoord" : 0
                },
                "metallicFactor" : 0,
                "roughnessFactor" : 0.5
            }
        },
        {
            "doubleSided" : true,
            "name" : "Hollow_Gear",
            "pbrMetallicRoughness" : {
                "baseColorTexture" : {
                    "index" : 1,
                    "texCoord" : 0
                },
                "metallicFactor" : 0,
                "roughnessFactor" : 0.5
            }
        },
        {
            "doubleSided" : true,
            "name" : "Gear",
            "pbrMetallicRoughness" : {
                "baseColorTexture" : {
                    "index" : 2,
                    "texCoord" : 0
                },
                "metallicFactor" : 0,
                "roughnessFactor" : 0.5
            }
        },
        {
            "doubleSided" : true,
            "name" : "Box",
            "pbrMetallicRoughness" : {
                "baseColorTexture" : {
                    "index" : 3,
                    "texCoord" : 0
                },
                "metallicFactor" : 0,
                "roughnessFactor" : 0.5
            }
        }
    ],
    "meshes" : [
        {
            "name" : "Cylinder.002",
            "primitives" : [
                {
                    "attributes" : {
                        "POSITION" : 0,
                        "NORMAL" : 1,
                        "TEXCOORD_0" : 2
                    },
                    "indices" : 3,
                    "material" : 0
                }
            ]
        },
        {
            "name" : "Cylinder.000",
            "primitives" : [
                {
                    "attributes" : {
                        "POSITION" : 4,
                        "NORMAL" : 5,
                        "TEXCOORD_0" : 6
                    },
                    "indices" : 7,
                    "material" : 1
                }
            ]
        },
        {
            "name" : "Cylinder.001",
            "primitives" : [
                {
                    "attributes" : {
                        "POSITION" : 8,
                        "NORMAL" : 9,
                        "TEXCOORD_0" : 10
                    },
                    "indices" : 7,
                    "material" : 1
                }
            ]
        },
        {
            "name" : "Cylinder.003",
            "primitives" : [
                {
                    "attributes" : {
                        "POSITION" : 11,
                        "NORMAL" : 12,
                        "TEXCOORD_0" : 13
                    },
                    "indices" : 3,
                    "material" : 2
                }
            ]
        },
        {
            "name" : "Cube",
            "primitives" : [
                {
                    "attributes" : {
                        "POSITION" : 14,
                        "NORMAL" : 15,
                        "TEXCOORD_0" : 16
                    },
                    "indices" : 17,
                    "material" : 3
                }
            ]
        },
        {
            "name" : "Cylinder.006",
            "primitives" : [
                {
                    "attributes" : {
                        "POSITION" : 18,
                        "NORMAL" : 19,
                        "TEXCOORD_0" : 20
                    },
                    "indices" : 3,
                    "material" : 2
                }
            ]
        },
        {
            "name" : "Cube.001",
            "primitives" : [
                {
                    "attributes" : {
                        "POSITION" : 21,
                        "NORMAL" : 22,
                        "TEXCOORD_0" : 23
                    },
                    "indices" : 17,
                    "material" : 3
                }
            ]
        },
        {
            "name" : "Cylinder.007",
            "primitives" : [
                {
                    "attributes" : {
                        "POSITION" : 24,
                        "NORMAL" : 25,
                        "TEXCOORD_0" : 26
                    },
                    "indices" : 27,
                    "material" : 0
                }
            ]
        },
        {
            "name" : "Cylinder.008",
            "primitives" : [
                {
                    "attributes" : {
                        "POSITION" : 28,
                        "NORMAL" : 29,
                        "TEXCOORD_0" : 30
                    },
                    "indices" : 27,
                    "material" : 2
                }
            ]
        }
    ],
    "textures" : [
        {
            "source" : 0
        },
        {
            "source" : 1
        },
        {
            "source" : 2
        },
        {
            "source" : 3
        }
    ],
    "images" : [
        {
            "bufferView" : 4,
            "mimeType" : "image/png",
            "name" : "Gear_blue"
        },
        {
            "bufferView" : 9,
            "mimeType" : "image/png",
            "name" : "Hollow_Gear"
        },
        {
            "bufferView" : 16,
            "mimeType" : "image/png",
            "name" : "Gear"
        },
        {
            "bufferView" : 21,
            "mimeType" : "image/png",
            "name" : "Box3"
        }
    ],
    "accessors" : [
        {
            "bufferView" : 0,
            "componentType" : 5126,
            "count" : 456,
            "max" : [
                1.3648990392684937,
                0.45000001788139343,
                1.3558900356292725
            ],
            "min" : [
                -1.2788907289505005,
                -0.45000001788139343,
                -1.3558900356292725
            ],
            "type" : "VEC3"
        },
        {
            "bufferView" : 1,
            "componentType" : 5126,
            "count" : 456,
            "type" : "VEC3"
        },
        {
            "bufferView" : 2,
            "componentType" : 5126,
            "count" : 456,
            "type" : "VEC2"
        },
        {
            "bufferView" : 3,
            "componentType" : 5123,
            "count" : 828,
            "type" : "SCALAR"
        },
        {
            "bufferView" : 5,
            "componentType" : 5126,
            "count" : 448,
            "max" : [
                1.3648990392684937,
                0.30000001192092896,
                1.3558900356292725
            ],
            "min" : [
                -1.2788907289505005,
                -0.30000001192092896,
                -1.3558900356292725
            ],
            "type" : "VEC3"
        },
        {
            "bufferView" : 6,
            "componentType" : 5126,
            "count" : 448,
            "type" : "VEC3"
        },
        {
            "bufferView" : 7,
            "componentType" : 5126,
            "count" : 448,
            "type" : "VEC2"
        },
        {
            "bufferView" : 8,
            "componentType" : 5123,
            "count" : 672,
            "type" : "SCALAR"
        },
        {
            "bufferView" : 10,
            "componentType" : 5126,
            "count" : 448,
            "max" : [
                1.3648990392684937,
                0.30000001192092896,
                1.3558900356292725
            ],
            "min" : [
                -1.2788907289505005,
                -0.30000001192092896,
                -1.3558900356292725
            ],
            "type" : "VEC3"
        },
        {
            "bufferView" : 11,
            "componentType" : 5126,
            "count" : 448,
            "type" : "VEC3"
        },
        {
            "bufferView" : 12,
            "componentType" : 5126,
            "count" : 448,
            "type" : "VEC2"
        },
        {
            "bufferView" : 13,
            "componentType" : 5126,
            "count" : 456,
            "max" : [
                1.3648990392684937,
                0.45000001788139343,
                1.3558900356292725
            ],
            "min" : [
                -1.2788907289505005,
                -0.45000001788139343,
                -1.3558900356292725
            ],
            "type" : "VEC3"
        },
        {
            "bufferView" : 14,
            "componentType" : 5126,
            "count" : 456,
            "type" : "VEC3"
        },
        {
            "bufferView" : 15,
            "componentType" : 5126,
            "count" : 456,
            "type" : "VEC2"
        },
        {
            "bufferView" : 17,
            "componentType" : 5126,
            "count" : 24,
            "max" : [
                4.699999809265137,
                1,
                2.6999998092651367
            ],
            "min" : [
                -0.7000000476837158,
                -1,
                -2.700000047683716
            ],
            "type" : "VEC3"
        },
        {
            "bufferView" : 18,
            "componentType" : 5126,
            "count" : 24,
            "type" : "VEC3"
        },
        {
            "bufferView" : 19,
            "componentType" : 5126,
            "count" : 24,
            "type" : "VEC2"
        },
        {
            "bufferView" : 20,
            "componentType" : 5123,
            "count" : 36,
            "type" : "SCALAR"
        },
        {
            "bufferView" : 22,
            "componentType" : 5126,
            "count" : 456,
            "max" : [
                1.3648990392684937,
                0.45000001788139343,
                1.3558900356292725
            ],
            "min" : [
                -1.2788907289505005,
                -0.45000001788139343,
                -1.3558900356292725
            ],
            "type" : "VEC3"
        },
        {
            "bufferView" : 23,
            "componentType" : 5126,
            "count" : 456,
            "type" : "VEC3"
        },
        {
            "bufferView" : 24,
            "componentType" : 5126,
            "count" : 456,
            "type" : "VEC2"
        },
        {
            "bufferView" : 25,
            "componentType" : 5126,
            "count" : 24,
            "max" : [
                1,
                1,
                1
            ],
            "min" : [
                -1,
                -5.960464477539063e-08,
                -1
            ],
            "type" : "VEC3"
        },
        {
            "bufferView" : 26,
            "componentType" : 5126,
            "count" : 24,
            "type" : "VEC3"
        },
        {
            "bufferView" : 27,
            "componentType" : 5126,
            "count" : 24,
            "type" : "VEC2"
        },
        {
            "bufferView" : 28,
            "componentType" : 5126,
            "count" : 444,
            "max" : [
                2.1838386058807373,
                0.7200000286102295,
                2.169424057006836
            ],
            "min" : [
                -2.0462253093719482,
                -0.7200000286102295,
                -2.169424057006836
            ],
            "type" : "VEC3"
        },
        {
            "bufferView" : 29,
            "componentType" : 5126,
            "count" : 444,
            "type" : "VEC3"
        },
        {
            "bufferView" : 30,
            "componentType" : 5126,
            "count" : 444,
            "type" : "VEC2"
        },
        {
            "bufferView" : 31,
            "componentType" : 5123,
            "count" : 828,
            "type" : "SCALAR"
        },
        {
            "bufferView" : 32,
            "componentType" : 5126,
            "count" : 444,
            "max" : [
                2.1838386058807373,
                0.7200000286102295,
                2.169424057006836
            ],
            "min" : [
                -2.0462253093719482,
                -0.7200000286102295,
                -2.169424057006836
            ],
            "type" : "VEC3"
        },
        {
            "bufferView" : 33,
            "componentType" : 5126,
            "count" : 444,
            "type" : "VEC3"
        },
        {
            "bufferView" : 34,
            "componentType" : 5126,
            "count" : 444,
            "type" : "VEC2"
        }
    ],
    "bufferViews" : [
        {
            "buffer" : 0,
            "byteLength" : 5472,
            "byteOffset" : 0
        },
        {
            "buffer" : 0,
            "byteLength" : 5472,
            "byteOffset" : 5472
        },
        {
            "buffer" : 0,
            "byteLength" : 3648,
            "byteOffset" : 10944
        },
        {
            "buffer" : 0,
            "byteLength" : 1656,
            "byteOffset" : 14592
        },
        {
            "buffer" : 0,
            "byteLength" : 91955,
            "byteOffset" : 16248
        },
        {
            "buffer" : 0,
            "byteLength" : 5376,
            "byteOffset" : 108204
        },
        {
            "buffer" : 0,
            "byteLength" : 5376,
            "byteOffset" : 113580
        },
        {
            "buffer" : 0,
            "byteLength" : 3584,
            "byteOffset" : 118956
        },
        {
            "buffer" : 0,
            "byteLength" : 1344,
            "byteOffset" : 122540
        },
        {
            "buffer" : 0,
            "byteLength" : 125602,
            "byteOffset" : 123884
        },
        {
            "buffer" : 0,
            "byteLength" : 5376,
            "byteOffset" : 249488
        },
        {
            "buffer" : 0,
            "byteLength" : 5376,
            "byteOffset" : 254864
        },
        {
            "buffer" : 0,
            "byteLength" : 3584,
            "byteOffset" : 260240
        },
        {
            "buffer" : 0,
            "byteLength" : 5472,
            "byteOffset" : 263824
        },
        {
            "buffer" : 0,
            "byteLength" : 5472,
            "byteOffset" : 269296
        },
        {
            "buffer" : 0,
            "byteLength" : 3648,
            "byteOffset" : 274768
        },
        {
            "buffer" : 0,
            "byteLength" : 93894,
            "byteOffset" : 278416
        },
        {
            "buffer" : 0,
            "byteLength" : 288,
            "byteOffset" : 372312
        },
        {
            "buffer" : 0,
            "byteLength" : 288,
            "byteOffset" : 372600
        },
        {
            "buffer" : 0,
            "byteLength" : 192,
            "byteOffset" : 372888
        },
        {
            "buffer" : 0,
            "byteLength" : 72,
            "byteOffset" : 373080
        },
        {
            "buffer" : 0,
            "byteLength" : 196038,
            "byteOffset" : 373152
        },
        {
            "buffer" : 0,
            "byteLength" : 5472,
            "byteOffset" : 569192
        },
        {
            "buffer" : 0,
            "byteLength" : 5472,
            "byteOffset" : 574664
        },
        {
            "buffer" : 0,
            "byteLength" : 3648,
            "byteOffset" : 580136
        },
        {
            "buffer" : 0,
            "byteLength" : 288,
            "byteOffset" : 583784
        },
        {
            "buffer" : 0,
            "byteLength" : 288,
            "byteOffset" : 584072
        },
        {
            "buffer" : 0,
            "byteLength" : 192,
            "byteOffset" : 584360
        },
        {
            "buffer" : 0,
            "byteLength" : 5328,
            "byteOffset" : 584552
        },
        {
            "buffer" : 0,
            "byteLength" : 5328,
            "byteOffset" : 589880
        },
        {
            "buffer" : 0,
            "byteLength" : 3552,
            "byteOffset" : 595208
        },
        {
            "buffer" : 0,
            "byteLength" : 1656,
            "byteOffset" : 598760
        },
        {
            "buffer" : 0,
            "byteLength" : 5328,
            "byteOffset" : 600416
        },
        {
            "buffer" : 0,
            "byteLength" : 5328,
            "byteOffset" : 605744
        },
        {
            "buffer" : 0,
            "byteLength" : 3552,
            "byteOffset" : 611072
        }
    ],
    "buffers" : [
        {
            "byteLength" : 614624,
            "uri" : "data:application/octet-stream;base64,"
        }
    ]
}
